With: Luigi Lo Cascio, Alessio Boni and Maya Sansa

Nicola and Matteo Carati are two brothers of Rome, who live the years from 1966 to 2000 and all the events which have signed this period. They begin their adventure, helping Giorgia, a young girl confined in an asylum. Then, after the flood of Florence, Nicola meets Giulia a talented piano player with a dangerous sympathy for the BR. Alessio, a rebel spirit entered in the police, will find the optimistic photographer Mirella. These four characters and many others will cross the years of terrorism and Tangentopoli.

General:

Complete name                    : Klambake\The Best of Youth\01The Best of Youth one.avi
Format                           : AVI
Format/Info                      : Audio Video Interleave
File size                        : 700 MiB
Duration                         : 55mn 49s
Overall bit rate                 : 1 752 Kbps
Writing application              : VirtualDubMod 1.5.10.2 (build 2540/release)
Writing library                  : VirtualDubMod build 2540/release

Video:

Format                           : MPEG-4 Visual
Format profile                   : Advanced Simple@L5
Format settings, BVOP            : Yes
Format settings, QPel            : No
Format settings, GMC             : No warppoints
Format settings, Matrix          : Default (H.263)
Codec ID                         : XVID
Codec ID/Hint                    : XviD
Duration                         : 55mn 49s
Bit rate                         : 1 359 Kbps
Width                            : 592 pixels
Height                           : 320 pixels
Display aspect ratio             : 1.850
Frame rate                       : 25.000 fps
Color space                      : YUV
Chroma subsampling               : 4:2:0
Bit depth                        : 8 bits
Scan type                        : Progressive
Bits/(Pixel*Frame)               : 0.287
Stream size                      : 542 MiB (78%)
Writing library                  : XviD 1.1.0 (UTC 2005-11-22)

Audio:

Format                           : AC-3
Format/Info                      : Audio Coding 3
Mode extension                   : CM (complete main)
Codec ID                         : 2000
Duration                         : 55mn 49s
Bit rate mode                    : Constant
Bit rate                         : 384 Kbps
Channel(s)                       : 6 channels
Channel positions                : Front: L C R, Side: L R, LFE
Sampling rate                    : 48.0 KHz
Bit depth                        : 16 bits
Stream size                      : 153 MiB (22%)
Alignment                        : Split accross interleaves
Interleave, duration             : 40 ms (1.00 video frame)
Interleave, preload duration     : 500 ms
